<svg width="168" height="168" viewBox="0 0 168 168" fill="none" xmlns="http://www.w3.org/2000/svg">
<path d="M84 168C37.8 168 0 130.2 0 84C0 37.8 37.8 0 84 0C130.2 0 168 37.8 168 84C168 130.2 130.2 168 84 168ZM84 12C44.4 12 12 44.4 12 84C12 123.6 44.4 156 84 156C123.6 156 156 123.6 156 84C156 44.4 123.6 12 84 12ZM122.343 100.616C120.353 98.7918 118.032 97.4652 115.71 96.3044C112.228 94.6462 107.087 91.993 103.273 94.4804C101.947 95.3095 100.952 96.8019 99.7911 97.7968C98.2987 99.2892 96.6404 100.782 94.6506 101.777C86.1936 106.088 75.0836 104.264 68.119 97.7968C64.1393 93.6513 61.652 87.6817 61.8178 81.8779C61.9836 77.4007 63.476 72.7577 66.295 69.1096C67.4557 67.6172 68.9481 66.2906 70.2747 64.7982C71.6013 63.4716 72.4304 61.9792 72.4304 59.9894C72.4304 57.502 71.2696 55.1805 70.2747 52.859C69.2798 50.7033 68.2849 48.3818 66.7924 46.5578C65.4659 44.7337 63.476 42.7438 61.3203 41.9147C60.3254 41.5831 59.3304 41.4173 58.3355 41.7489C57.0089 42.0806 56.014 43.0755 55.0191 43.9046C50.7077 47.221 46.2305 51.035 44.0748 56.0096C40.4267 63.9691 42.0849 73.0893 45.2356 80.8829C48.8836 89.6715 54.8532 97.631 61.8178 104.098C65.9633 108.244 70.6064 112.058 75.581 115.208C82.0481 119.188 89.5101 122.504 97.1379 123.333C102.444 123.997 108.082 123.168 112.725 120.68C114.715 119.52 116.539 118.193 118.197 116.535C120.021 114.711 122.011 112.721 123.504 110.731C124.499 109.57 125.825 108.409 125.991 106.585C126.157 104.264 124.001 102.108 122.343 100.616Z" fill="#2AC420"/>
</svg>
