<svg width="486" height="168" viewBox="0 0 486 168" fill="none" xmlns="http://www.w3.org/2000/svg">
<g clip-path="url(#clip0_22_94)">
<path d="M486 34.5C486 32.0147 483.985 30 481.5 30C479.015 30 477 32.0147 477 34.5V115.5C477 117.985 479.015 120 481.5 120C483.985 120 486 117.985 486 115.5V34.5Z" fill="#DADADA"/>
<path d="M465 34.5C465 32.0147 462.985 30 460.5 30C458.015 30 456 32.0147 456 34.5V115.5C456 117.985 458.015 120 460.5 120C462.985 120 465 117.985 465 115.5V34.5Z" fill="#DADADA"/>
<path d="M435 68.5757V64.5098C435 62.0191 437.02 60 439.5 60C441.985 60 444 62.0135 444 64.5098V115.49C444 117.981 441.98 120 439.5 120C437.015 120 435 117.987 435 115.49V111.424C429.589 116.729 422.176 120 414 120C397.431 120 384 106.569 384 90C384 73.4315 397.431 60 414 60C422.176 60 429.589 63.271 435 68.5757ZM414 111C425.598 111 435 101.598 435 90C435 78.402 425.598 69 414 69C402.402 69 393 78.402 393 90C393 101.598 402.402 111 414 111Z" fill="#DADADA"/>
<path d="M378.567 68.4332C366.656 56.5223 347.344 56.5223 335.433 68.4332C323.522 80.3442 323.522 99.6558 335.433 111.567C347.344 123.478 366.656 123.478 378.567 111.567C380.324 109.809 380.324 106.96 378.567 105.203C376.809 103.445 373.96 103.445 372.203 105.203C363.807 113.599 350.193 113.599 341.797 105.203C333.401 96.8065 333.401 83.1935 341.797 74.7972C350.193 66.4009 363.807 66.4009 372.203 74.7972C373.96 76.5546 376.809 76.5546 378.567 74.7972C380.324 73.0398 380.324 70.1906 378.567 68.4332Z" fill="#DADADA"/>
<path d="M309 65.6501V64.5098C309 62.0191 306.98 60 304.5 60C302.015 60 300 62.0135 300 64.5098V115.49C300 117.981 302.02 120 304.5 120C306.985 120 309 117.987 309 115.49V89.08C309.27 76.772 314.976 69.0293 323.915 69.0293C326.4 69.0293 328.415 67.0146 328.415 64.5293C328.415 62.044 326.4 60.0293 323.915 60.0293C317.917 60.0293 312.88 62.0782 309 65.6501Z" fill="#DADADA"/>
<path d="M288 64.5C288 62.0147 285.985 60 283.5 60C281.015 60 279 62.0147 279 64.5V115.5C279 117.985 281.015 120 283.5 120C285.985 120 288 117.985 288 115.5V64.5Z" fill="#DADADA"/>
<path d="M283.5 45C289.299 45 294 40.299 294 34.5C294 28.701 289.299 24 283.5 24C277.701 24 273 28.701 273 34.5C273 40.299 277.701 45 283.5 45Z" fill="#2AC420"/>
<path d="M258 68.5757V64.5098C258 62.0191 260.02 60 262.5 60C264.985 60 267 62.0135 267 64.5098V115.49C267 117.981 264.98 120 262.5 120C260.015 120 258 117.987 258 115.49V111.424C252.589 116.729 245.176 120 237 120C220.431 120 207 106.569 207 90C207 73.4315 220.431 60 237 60C245.176 60 252.589 63.271 258 68.5757ZM237 111C248.598 111 258 101.598 258 90C258 78.402 248.598 69 237 69C225.402 69 216 78.402 216 90C216 101.598 225.402 111 237 111Z" fill="#DADADA"/>
<path d="M84 168C37.8 168 0 130.2 0 84C0 37.8 37.8 0 84 0C130.2 0 168 37.8 168 84C168 130.2 130.2 168 84 168ZM84 12C44.4 12 12 44.4 12 84C12 123.6 44.4 156 84 156C123.6 156 156 123.6 156 84C156 44.4 123.6 12 84 12ZM122.343 100.616C120.353 98.7918 118.032 97.4652 115.71 96.3044C112.228 94.6462 107.087 91.993 103.273 94.4804C101.947 95.3095 100.952 96.8019 99.7911 97.7968C98.2987 99.2892 96.6404 100.782 94.6506 101.777C86.1936 106.088 75.0836 104.264 68.119 97.7968C64.1393 93.6513 61.652 87.6817 61.8178 81.8779C61.9836 77.4007 63.476 72.7577 66.295 69.1096C67.4557 67.6172 68.9481 66.2906 70.2747 64.7982C71.6013 63.4716 72.4304 61.9792 72.4304 59.9894C72.4304 57.502 71.2696 55.1805 70.2747 52.859C69.2798 50.7033 68.2849 48.3818 66.7924 46.5578C65.4659 44.7337 63.476 42.7438 61.3203 41.9147C60.3254 41.5831 59.3304 41.4173 58.3355 41.7489C57.0089 42.0806 56.014 43.0755 55.0191 43.9046C50.7077 47.221 46.2305 51.035 44.0748 56.0096C40.4267 63.9691 42.0849 73.0893 45.2356 80.8829C48.8836 89.6715 54.8532 97.631 61.8178 104.098C65.9633 108.244 70.6064 112.058 75.581 115.208C82.0481 119.188 89.5101 122.504 97.1379 123.333C102.444 123.997 108.082 123.168 112.725 120.68C114.715 119.52 116.539 118.193 118.197 116.535C120.021 114.711 122.011 112.721 123.504 110.731C124.499 109.57 125.825 108.409 125.991 106.585C126.157 104.264 124.001 102.108 122.343 100.616Z" fill="#2AC420"/>
</g>
<defs>
<clipPath id="clip0_22_94">
<rect width="486" height="168" fill="white"/>
</clipPath>
</defs>
</svg>
